<svg width="400" height="400" viewBox="0 0 400 400" xmlns="http://www.w3.org/2000/svg">
  <rect width="400" height="400" rx="90" fill="#F43F85" />
  <g transform="translate(104, 85) scale(6)" fill="white">
     <path d="M4.35042 36.2562C4.66192 36.148 5.11165 35.9055 5.69961 35.5288C6.52369 35.0012 7.28834 34.4348 7.99186 33.8263C8.69452 33.2212 9.18793 32.7022 9.46951 32.271C9.75022 31.8406 9.50912 31.7235 8.74618 31.9198C7.98153 32.116 7.71028 31.6159 7.93158 30.423C8.15202 29.23 8.77632 27.635 9.80103 25.639C10.8266 23.6438 12.2138 21.3843 13.9627 18.8607C15.7116 16.337 17.7722 13.8038 20.1454 11.2603C20.346 11.0254 20.4261 10.7714 20.3865 10.4969C20.346 10.224 20.2358 9.93912 20.055 9.64646C19.8742 9.35295 19.6331 9.06977 19.3317 8.7952C19.0303 8.52234 18.7186 8.28736 18.3974 8.09111C20.4072 8.05324 22.3576 8.08164 24.2477 8.17891C26.1369 8.27703 27.8462 8.42422 29.3747 8.61961C29.7759 8.6592 30.1281 8.42422 30.4304 7.91552C30.7326 7.40769 30.9634 6.80087 31.1244 6.09592C31.2846 5.39184 31.3552 4.69722 31.3354 4.01294C31.3147 3.32865 31.164 2.83028 30.8833 2.51611C30.6405 2.28199 29.9172 2.13567 28.7108 2.07628C27.5044 2.01775 26.0061 2.01775 24.2175 2.07628C22.4273 2.13481 20.4873 2.27253 18.3974 2.48771C16.3058 2.70289 14.2658 2.96714 12.275 3.27959C10.2841 3.5929 8.4646 3.96474 6.8156 4.3951C5.16659 4.82547 3.92058 5.29544 3.07585 5.80327C2.83474 5.92033 2.65391 6.23364 2.53335 6.74234C2.4128 7.25103 2.40247 7.75973 2.50321 8.26842C2.6031 8.77712 2.8244 9.18769 3.16626 9.501C3.50726 9.81431 4.02047 9.85304 4.70505 9.61892C5.95106 9.18855 7.51912 8.85545 9.40923 8.62133C11.2985 8.38635 13.3298 8.23055 15.5015 8.15222C14.6568 8.81757 13.6915 9.81517 12.6065 11.145C11.5206 12.4757 10.3943 13.982 9.2284 15.6639C8.06247 17.3466 6.93701 19.118 5.85117 20.9755C4.76532 22.8338 3.77936 24.6052 2.89588 26.2871C2.01067 27.969 1.30715 29.4761 0.784461 30.806C0.260913 32.135 0 33.1136 0 33.7394C0 33.8564 0.130026 34.0622 0.3918 34.3557C0.652713 34.6492 0.984236 34.9427 1.38723 35.2353C1.7885 35.5288 2.23111 35.7836 2.71418 35.9988C2.97979 36.1169 3.23312 36.2028 3.47445 36.2562H4.35042Z" />
  </g>
</svg>