<svg width="161" height="36" viewBox="0 0 161 36" fill="none" xmlns="http://www.w3.org/2000/svg">
<path d="M161 15.0504C160.836 14.5146 160.517 14.073 160.043 13.7265C159.561 13.3744 159.037 13.1205 158.475 12.9639C157.912 12.8081 157.369 12.7392 156.846 12.7581C156.323 12.7779 155.941 12.8468 155.7 12.9639C154.976 13.3555 153.96 14.1181 152.655 15.2526C151.347 16.3879 149.919 17.7375 148.371 19.3023C146.823 20.8672 145.244 22.5594 143.636 24.379C142.029 26.1977 140.56 27.988 139.233 29.7482C140.44 27.9088 141.647 26.1977 142.853 24.6131C144.058 23.0285 145.205 21.6005 146.29 20.3283C147.377 19.057 148.351 17.9906 149.215 17.1298C150.08 16.2691 150.733 15.6235 151.175 15.1932C151.416 14.9978 151.416 14.7628 151.175 14.4891C150.935 14.2154 150.591 13.9511 150.15 13.6963C149.707 13.4424 149.245 13.2272 148.763 13.0508C148.281 12.8743 147.898 12.7865 147.617 12.7865C147.296 12.7874 146.713 13.1894 145.869 13.9907C145.025 14.7929 144.08 15.8301 143.034 17.1014C141.988 18.3736 140.894 19.7818 139.748 21.3268C138.601 22.8727 137.555 24.379 136.611 25.8457C135.665 27.3124 134.892 28.6439 134.289 29.8369C133.686 31.0307 133.384 31.9207 133.384 32.5078C133.384 32.7815 133.535 33.1439 133.836 33.5932C134.138 34.0425 134.478 34.4548 134.861 34.8266C135.242 35.1984 135.625 35.4524 136.007 35.5892C136.388 35.7261 136.679 35.6383 136.882 35.325L137.123 34.855C137.887 33.6431 138.882 32.2642 140.108 30.7174C141.335 29.1724 142.631 27.6076 144 26.0221C145.366 24.4384 146.734 22.9217 148.101 21.4748C149.468 20.0279 150.714 18.7945 151.841 17.7771C151.559 18.2462 151.137 18.8332 150.574 19.5382C150.011 20.2414 149.458 20.9463 148.915 21.6504C148.372 22.3536 147.89 23.0199 147.467 23.6448C147.045 24.2722 146.834 24.7224 146.834 24.9953C146.834 25.269 146.934 25.5625 147.136 25.8749C147.337 26.1882 147.608 26.4817 147.95 26.7546C148.291 27.0292 148.653 27.2633 149.036 27.4587C149.418 27.6549 149.79 27.7522 150.152 27.7522C150.473 27.7522 150.855 27.6265 151.298 27.3709C151.741 27.117 152.193 26.7942 152.655 26.4026C153.117 26.0126 153.579 25.5814 154.043 25.1115C154.503 24.6423 154.896 24.193 155.218 23.7618C155.499 23.4106 155.58 23.2144 155.459 23.1748C155.339 23.1361 155.137 23.1567 154.856 23.2333C154.574 23.3125 154.293 23.3994 154.012 23.4976C153.73 23.5957 153.569 23.625 153.529 23.5862C153.448 23.5079 153.59 23.2738 153.951 22.8821C154.313 22.4914 154.775 22.0025 155.339 21.4154C155.9 20.8284 156.524 20.2035 157.208 19.5373C157.892 18.872 158.524 18.2367 159.108 17.6291C159.691 17.0231 160.164 16.4843 160.525 16.0152C160.797 15.6617 160.955 15.3971 161 15.2208V15.0504Z" fill="#F43F85"/>
<path d="M137.397 15.9274C136.813 15.3206 136.139 14.7929 135.376 14.3428C134.611 13.8935 133.816 13.5414 132.993 13.2858C132.168 13.0319 131.433 12.963 130.791 13.0801C129.907 13.2763 128.931 13.7652 127.866 14.5476C126.801 15.33 125.734 16.2992 124.669 17.4526C123.603 18.6069 122.588 19.8876 121.624 21.2967C120.658 22.7057 119.822 24.0941 119.12 25.4635C118.417 26.8338 117.883 28.1249 117.522 29.3377C117.161 30.5496 117.06 31.567 117.22 32.389C117.3 32.7806 117.643 33.2007 118.245 33.6508C118.848 34.101 119.521 34.5124 120.267 34.8843C121.01 35.2561 121.754 35.5488 122.499 35.7631C123.242 35.9783 123.795 36.0661 124.157 36.0282C125.001 35.9103 125.956 35.4808 127.022 34.7362C128.087 33.9943 129.172 33.0647 130.279 31.9492C131.384 30.8345 132.46 29.5925 133.506 28.2222C134.551 26.8536 135.456 25.5143 136.219 24.2025C136.983 22.8925 137.576 21.6599 137.998 20.5048C138.42 19.3514 138.571 18.4218 138.45 17.7177C138.332 17.1307 137.979 16.5342 137.397 15.9274ZM134.532 17.4535C134.088 18.4511 133.425 19.6449 132.541 21.0333C131.656 22.4217 130.651 23.8892 129.525 25.4342C128.398 26.981 127.303 28.3892 126.238 29.6596C125.172 30.9318 124.227 31.9483 123.404 32.7118C122.578 33.4753 122.047 33.7593 121.805 33.5622C121.523 33.3668 121.613 32.7608 122.076 31.7434C122.537 30.7261 123.202 29.5236 124.067 28.1344C124.931 26.746 125.915 25.2879 127.023 23.7618C128.129 22.2366 129.203 20.8482 130.249 19.595C131.295 18.3435 132.23 17.3459 133.055 16.6022C133.878 15.8594 134.451 15.5659 134.774 15.7217C135.053 15.8783 134.973 16.4559 134.532 17.4535Z" fill="#F43F85"/>
<path d="M130.381 0.15691H130.367C130.3 0.157175 130.241 0.161484 130.189 0.169821C129.827 0.248148 129.214 0.718111 128.35 1.57799C127.484 2.43873 126.46 3.55424 125.274 4.92281C124.087 6.29311 122.801 7.85707 121.413 9.61814C120.027 11.3783 118.639 13.1979 117.252 15.0761C115.865 16.9542 114.527 18.8237 113.242 20.6812C111.953 22.5395 110.818 24.2713 109.833 25.8749C108.847 27.4793 108.054 28.8978 107.451 30.1295C106.847 31.3621 106.546 32.253 106.546 32.7995C106.546 33.0741 106.646 33.3779 106.847 33.7102C107.049 34.0424 107.31 34.3463 107.632 34.62C107.953 34.8937 108.315 35.1287 108.717 35.3241C109.12 35.5195 109.501 35.6176 109.864 35.6176C110.185 35.6176 110.566 35.4919 111.01 35.2363C111.451 34.9824 111.903 34.6596 112.367 34.2679C112.827 33.878 113.291 33.4373 113.753 32.9476C114.215 32.4595 114.606 31.999 114.929 31.5678C115.21 31.2166 115.291 31.0204 115.17 30.9808C115.049 30.9421 114.848 30.9627 114.568 31.0393C114.285 31.1185 113.994 31.2158 113.693 31.3328C113.391 31.4508 113.219 31.4903 113.18 31.4508C113.058 31.3328 113.249 30.8052 113.752 29.8661C114.254 28.9262 114.99 27.704 115.954 26.1977C116.919 24.6914 118.085 22.9802 119.452 21.0616C120.818 19.1448 122.297 17.1505 123.885 15.0761C125.474 13.0026 127.132 10.9299 128.86 8.85466C130.589 6.78115 132.299 4.82555 133.988 2.98616C134.309 2.63411 134.339 2.28207 134.078 1.93003C133.816 1.57799 133.446 1.25521 132.963 0.9617C132.48 0.669049 131.958 0.453864 131.395 0.316146C130.961 0.210674 130.623 0.157858 130.381 0.15691Z" fill="#F43F85"/>
<path d="M110.103 14.02C109.259 14.842 108.303 15.8981 107.238 17.1892C106.173 18.4803 105.067 19.9092 103.92 21.474C102.773 23.0388 101.719 24.5649 100.753 26.0514C99.788 27.5379 98.994 28.8884 98.3706 30.1003C97.7472 31.3131 97.4363 32.2125 97.4363 32.7996C97.4363 33.0741 97.5371 33.378 97.7377 33.7102C97.9392 34.0425 98.2104 34.3463 98.5514 34.62C98.8924 34.8937 99.2541 35.1287 99.6381 35.3241C100.02 35.5204 100.392 35.6176 100.753 35.6176C101.074 35.6176 101.456 35.492 101.899 35.2363C102.342 34.9824 102.804 34.6596 103.287 34.268C103.769 33.8781 104.231 33.4374 104.673 32.9476C105.116 32.4596 105.518 31.9991 105.879 31.5679C106.16 31.2167 106.231 31.0204 106.09 30.9808C105.949 30.9421 105.738 30.9628 105.457 31.0394C105.176 31.1185 104.894 31.2158 104.614 31.3329C104.332 31.4508 104.17 31.4904 104.13 31.4508C103.969 31.295 104.1 30.825 104.522 30.0418C104.944 29.2594 105.518 28.3108 106.242 27.1953C106.965 26.0798 107.8 24.8868 108.744 23.6155C109.689 22.3442 110.604 21.1305 111.489 19.9763C112.373 18.8229 113.168 17.8047 113.872 16.925C114.575 16.0445 115.048 15.4678 115.289 15.1932C115.49 14.9591 115.481 14.7043 115.259 14.4306C115.038 14.1577 114.726 13.9021 114.325 13.668C113.922 13.433 113.48 13.2273 112.998 13.0517C112.515 12.8752 112.133 12.7874 111.852 12.7874C111.53 12.7874 110.947 13.198 110.103 14.02ZM117.281 11.2613C117.884 10.8706 118.487 10.4204 119.091 9.91169C119.693 9.40386 120.226 8.88483 120.689 8.35634C121.15 7.82785 121.383 7.40781 121.383 7.0945C121.383 6.70372 121.252 6.37148 120.99 6.0969C120.728 5.82405 120.397 5.59768 119.995 5.42208C119.592 5.24563 119.16 5.11911 118.699 5.04078C118.236 4.96245 117.803 4.94351 117.402 4.98225C117.12 5.02184 116.777 5.20776 116.377 5.53915C115.974 5.87225 115.541 6.25442 115.08 6.68393C114.617 7.11429 114.165 7.57393 113.723 8.06283C113.28 8.55259 112.879 8.99329 112.517 9.3832C112.195 9.73524 112.134 10.0787 112.336 10.4101C112.536 10.7432 112.858 11.0263 113.301 11.2613C113.743 11.4955 114.215 11.6822 114.719 11.8182C115.221 11.9559 115.612 11.9852 115.895 11.9069C116.214 11.8681 116.677 11.653 117.281 11.2613Z" fill="#F43F85"/>
<path d="M100.875 14.6068C100.634 14.3718 100.342 14.1076 99.9997 13.8149C99.6579 13.5223 99.3151 13.258 98.975 13.0222C98.6331 12.7881 98.281 12.6022 97.9193 12.4653C97.5576 12.3284 97.2149 12.3 96.8937 12.3775C95.6072 12.6116 94.2906 13.209 92.943 14.1678C91.5962 15.1267 90.2891 16.2715 89.0224 17.6005C87.7557 18.9312 86.5588 20.3695 85.4334 21.9145C84.307 23.4604 83.3228 24.9469 82.4781 26.3748C81.6342 27.8037 80.9694 29.0948 80.4872 30.249C80.005 31.4033 79.7639 32.2545 79.7639 32.8011C79.7639 33.0757 79.8646 33.3795 80.0653 33.7118C80.2659 34.044 80.538 34.3478 80.8799 34.6216C81.2209 34.8953 81.5825 35.1303 81.9657 35.3256C82.3472 35.5219 82.7192 35.6192 83.0817 35.6192C83.2427 35.6192 83.5536 35.4427 84.016 35.0915C84.4784 34.7386 85.0218 34.2695 85.6452 33.6825C86.2686 33.0955 86.9721 32.4112 87.7566 31.6279C88.5402 30.8464 89.3341 30.0244 90.1393 29.1636C89.6958 29.9469 89.3548 30.651 89.1146 31.2759C88.8726 31.9025 88.752 32.4112 88.752 32.8011C88.752 33.0757 88.8519 33.3795 89.0543 33.7118C89.2541 34.044 89.527 34.3478 89.868 34.6216C90.209 34.8953 90.5707 35.1303 90.9539 35.3256C91.3353 35.5219 91.7082 35.6192 92.0699 35.6192C92.391 35.6192 92.7725 35.4935 93.216 35.2378C93.6577 34.9839 94.121 34.6612 94.6032 34.2695C95.0854 33.8796 95.5478 33.4389 95.9896 32.9491C96.4322 32.4611 96.8334 32.0006 97.196 31.5694C97.4767 31.2182 97.5473 31.022 97.4069 30.9824C97.2657 30.9436 97.0548 30.9643 96.774 31.0409C96.4925 31.1201 96.21 31.2173 95.9293 31.3344C95.6486 31.4523 95.4867 31.4919 95.4471 31.4523C95.2852 31.2965 95.3868 30.8464 95.7493 30.1027C96.111 29.3599 96.6328 28.4699 97.3165 27.4318C98.0002 26.3963 98.7735 25.2705 99.6389 24.0577C100.503 22.8458 101.338 21.701 102.141 20.6242C102.946 19.5483 103.68 18.5998 104.343 17.7778C105.007 16.9558 105.479 16.3894 105.76 16.0752C105.961 15.8411 105.951 15.5863 105.73 15.3126C105.509 15.0389 105.188 14.7841 104.765 14.55C104.343 14.315 103.9 14.1093 103.438 13.9337C102.976 13.7581 102.604 13.6695 102.323 13.6695C101.999 13.6678 101.517 13.9811 100.875 14.6068ZM86.3685 29.7481C86.7905 28.8882 87.4027 27.8613 88.2087 26.6666C89.0129 25.4736 89.9369 24.2118 90.9831 22.882C92.0285 21.5521 93.1032 20.329 94.2097 19.2135C95.3153 18.0988 96.3805 17.1804 97.4069 16.4557C98.4325 15.7318 99.3074 15.409 100.031 15.4874C99.0654 16.5056 97.9692 17.7864 96.7439 19.3314C95.5168 20.8773 94.3406 22.4912 93.2151 24.1731C92.3712 25.0734 91.5256 25.9539 90.6818 26.8138C89.8379 27.6754 89.0741 28.4475 88.3904 29.1318C87.7058 29.8169 87.1435 30.3549 86.7009 30.7457C86.2583 31.1373 86.0172 31.3129 85.9776 31.2733C85.8157 31.1184 85.9466 30.6088 86.3685 29.7481Z" fill="#F43F85"/>
<path d="M85.0107 8.09208C84.3675 8.09208 83.8542 8.23841 83.4736 8.53192C83.0904 8.82543 82.7383 9.1878 82.4171 9.61817C82.095 10.0873 81.8634 10.528 81.723 10.9385C81.5818 11.3491 81.7928 11.5548 82.3559 11.5548H84.2865C82.7581 13.5113 81.1891 15.6037 79.5815 17.8339C77.9729 20.0641 76.5056 22.197 75.1787 24.2309C73.8517 26.2657 72.7659 28.0655 71.9211 29.6295C71.0773 31.1943 70.6545 32.2521 70.6545 32.7987C70.6545 33.0733 70.7552 33.3771 70.9558 33.7094C71.1573 34.0416 71.4277 34.3454 71.7704 34.6192C72.1114 34.8929 72.4731 35.1279 72.8563 35.3232C73.2378 35.5195 73.6097 35.6168 73.9723 35.6168C74.2935 35.6168 74.6749 35.4911 75.1184 35.2354C75.5601 34.9815 76.0234 34.6588 76.5056 34.2671C76.9878 33.8772 77.4502 33.4365 77.8929 32.9467C78.3346 32.4587 78.7376 31.9982 79.0993 31.567C79.38 31.2158 79.4506 31.0196 79.3102 30.98C79.169 30.9412 78.958 30.9619 78.6773 31.0385C78.3957 31.1177 78.1142 31.2149 77.8334 31.332C77.5519 31.4499 77.39 31.4895 77.3504 31.4499C77.1489 31.2941 77.39 30.5987 78.0737 29.3661C78.7574 28.1335 79.7124 26.579 80.9394 24.7009C82.1656 22.8227 83.6226 20.738 85.3121 18.4502C87.0016 16.1606 88.7703 13.8633 90.6199 11.554H92.7907C93.3935 11.554 93.9067 11.3689 94.3287 10.9962C94.7506 10.6244 95.1424 10.2241 95.5049 9.79376C95.8261 9.36339 96.0775 8.97175 96.2592 8.61971C96.4392 8.26767 96.2076 8.09122 95.5643 8.09122H93.5141L94.9616 6.5066C95.1622 6.27162 95.1527 6.0177 94.9323 5.74313C94.7101 5.47027 94.3889 5.2155 93.967 4.98051C93.5451 4.74639 93.1016 4.54068 92.64 4.36423C92.1776 4.18777 91.8048 4.09998 91.5241 4.09998C91.202 4.09998 90.6492 4.46235 89.8647 5.18537C89.0811 5.91011 88.1658 6.87844 87.1204 8.09036H85.0107V8.09208Z" fill="#F43F85"/>
<path d="M66.3759 23.2929C65.4106 24.6632 64.546 25.9629 63.7822 27.1955C63.0176 28.4281 62.395 29.5436 61.9128 30.5403C61.4297 31.5388 61.1895 32.2919 61.1895 32.7998C61.1895 33.0744 61.2894 33.3782 61.4908 33.7104C61.6915 34.0427 61.9627 34.3465 62.3046 34.6202C62.6456 34.894 63.0072 35.1289 63.3904 35.3243C63.7719 35.5206 64.1448 35.6178 64.5064 35.6178C64.8285 35.6178 65.2091 35.4922 65.6525 35.2365C66.0943 34.9826 66.5576 34.6598 67.0398 34.2682C67.5228 33.8783 67.9844 33.4376 68.427 32.9478C68.8687 32.4598 69.2709 31.9993 69.6334 31.5681C69.9141 31.2169 69.9847 31.0206 69.8444 30.981C69.7031 30.9423 69.4922 30.963 69.2115 31.0396C68.929 31.1188 68.6483 31.216 68.3676 31.3331C68.0851 31.451 67.9241 31.4906 67.8845 31.451C67.7235 31.2952 67.8544 30.8252 68.2763 30.042C68.6982 29.2596 69.2717 28.311 69.9959 27.1955C70.7193 26.08 71.5537 24.887 72.4991 23.6157C73.4438 22.3444 74.3479 21.1308 75.2133 19.9765C76.077 18.8231 76.8615 17.8049 77.565 16.9252C78.2676 16.0447 78.761 15.468 79.0426 15.1934C79.2433 14.998 79.2329 14.763 79.0125 14.4893C78.7912 14.2156 78.4786 13.9513 78.0782 13.6966C77.6752 13.4426 77.2429 13.2275 76.7814 13.051C76.319 12.8746 75.9461 12.7868 75.6654 12.7868H75.6051C75.1221 12.7868 74.1972 13.3351 72.8307 14.4299C71.4632 15.5256 69.9245 16.9347 68.2169 18.6553C66.5076 20.3776 64.7484 22.285 62.9392 24.3775C61.1292 26.4708 59.5009 28.4952 58.0533 30.4517C59.2597 28.5348 60.5058 26.7445 61.7931 25.0815C63.0796 23.4195 64.286 21.9226 65.4123 20.5919C66.5378 19.2621 67.5435 18.1371 68.4279 17.2178C69.3113 16.2994 69.9753 15.6238 70.4187 15.1925C70.6598 14.9971 70.6598 14.7622 70.4187 14.4884C70.1776 14.2147 69.8349 13.9505 69.3932 13.6957C68.9505 13.4418 68.4881 13.2266 68.0059 13.0502C67.5228 12.8737 67.1405 12.7859 66.8598 12.7859C66.3767 12.7859 65.4519 13.3342 64.0853 14.4291C62.7179 15.5248 61.18 16.9338 59.4716 18.6544C57.7623 20.3768 56.0031 22.2841 54.1939 24.3766C52.3839 26.4699 50.7555 28.4944 49.308 30.4508C50.5144 28.534 51.7604 26.7436 53.0478 25.0807C54.3343 23.4186 55.5407 21.9218 56.667 20.5911C57.7924 19.2612 58.7982 18.1363 59.6825 17.217C60.566 16.2986 61.2299 15.6229 61.6734 15.1917C61.9145 14.9963 61.9145 14.7613 61.6734 14.4876C61.4323 14.2139 61.0896 13.9496 60.6478 13.6948C60.2052 13.4409 59.7437 13.2257 59.2606 13.0493C58.7775 12.8728 58.3952 12.785 58.1145 12.785C57.7924 12.785 57.2189 13.187 56.3957 13.9884C55.5708 14.7906 54.6253 15.8278 53.561 17.0991C52.4949 18.3712 51.3988 19.7794 50.2733 21.3244C49.147 22.8703 48.1111 24.3766 47.1673 25.8433C46.2218 27.31 45.4374 28.6416 44.8148 29.8345C44.1914 31.0284 43.8797 31.9184 43.8797 32.5054C43.8797 32.7791 44.0303 33.1415 44.3317 33.5908C44.6331 34.0401 44.9844 34.4524 45.3874 34.8242C45.7887 35.1961 46.1805 35.45 46.5637 35.5868C46.9452 35.7237 47.2164 35.6359 47.3783 35.3226C47.4584 35.1668 47.5385 35.0497 47.6194 34.9706C48.3031 33.8766 49.1573 32.6431 50.1829 31.2728C51.2085 29.9034 52.3029 28.5056 53.4697 27.0767C54.6356 25.6496 55.8317 24.2699 57.0588 22.9392C58.285 21.6093 59.4414 20.4155 60.5273 19.3594C59.562 20.6117 58.6062 21.9028 57.6615 23.2327C56.7161 24.5634 55.8722 25.8347 55.129 27.0475C54.3842 28.2611 53.7814 29.3465 53.319 30.3054C52.8558 31.2634 52.625 31.9976 52.625 32.5063C52.625 32.78 52.7757 33.1424 53.077 33.5917C53.3784 34.041 53.7203 34.4533 54.1026 34.8251C54.4841 35.1969 54.8656 35.4509 55.2487 35.5877C55.6302 35.7246 55.9221 35.6368 56.1236 35.3235L56.6067 34.5023C57.33 33.4075 58.1946 32.1938 59.2003 30.8623C60.2052 29.5324 61.2816 28.1836 62.4277 26.8133C63.5738 25.4439 64.7398 24.1141 65.9264 22.823C67.1112 21.531 68.2272 20.3776 69.2735 19.3602C68.3065 20.6135 67.3412 21.9235 66.3759 23.2929Z" fill="#F43F85"/>
<path d="M47.2545 14.6068C47.0134 14.3718 46.7206 14.1076 46.3796 13.8149C46.0377 13.5214 45.695 13.258 45.354 13.0222C45.0122 12.7881 44.66 12.6022 44.2983 12.4653C43.9367 12.3284 43.5948 12.3 43.2736 12.3775C41.9863 12.6116 40.6696 13.209 39.3229 14.1678C37.9753 15.1267 36.669 16.2715 35.4023 17.6005C34.1356 18.9312 32.9387 20.3695 31.8132 21.9145C30.6869 23.4604 29.7027 24.9469 28.858 26.3748C28.0141 27.8037 27.3502 29.0948 26.8671 30.249C26.3849 31.4033 26.1438 32.2545 26.1438 32.8011C26.1438 33.0757 26.2445 33.3795 26.4452 33.7118C26.6458 34.044 26.917 34.3478 27.2598 34.6216C27.6007 34.8953 27.9624 35.1303 28.3456 35.3256C28.7271 35.5219 29.0991 35.6192 29.4616 35.6192C29.6217 35.6192 29.9335 35.4427 30.3959 35.0915C30.8583 34.7386 31.4008 34.2695 32.0251 33.6825C32.6477 33.0955 33.352 32.4112 34.1356 31.6279C34.9201 30.8464 35.714 30.0244 36.5183 29.1636C36.0757 29.9469 35.7338 30.651 35.4927 31.2759C35.2516 31.9025 35.1311 32.4112 35.1311 32.8011C35.1311 33.0757 35.2309 33.3795 35.4324 33.7118C35.6331 34.044 35.9043 34.3478 36.2462 34.6216C36.5872 34.8953 36.9497 35.1303 37.332 35.3256C37.7135 35.5219 38.0855 35.6192 38.448 35.6192C38.7692 35.6192 39.1507 35.4935 39.5941 35.2378C40.0359 34.9839 40.4992 34.6612 40.9814 34.2695C41.4644 33.8796 41.926 33.4389 42.3686 32.9491C42.8103 32.4611 43.2125 32.0006 43.575 31.5694C43.8557 31.2182 43.9263 31.022 43.786 30.9824C43.6447 30.9436 43.4338 30.9643 43.1531 31.0409C42.8715 31.1201 42.589 31.2173 42.3083 31.3344C42.0267 31.4523 41.8657 31.4919 41.8261 31.4523C41.6651 31.2965 41.7658 30.8464 42.1275 30.1027C42.4892 29.3599 43.0118 28.4699 43.6955 27.4318C44.3784 26.3963 45.1525 25.2705 46.0179 24.0577C46.8816 22.8458 47.716 21.701 48.5211 20.6242C49.3254 19.5483 50.0591 18.5998 50.723 17.7778C51.3869 16.9558 51.8588 16.3894 52.1403 16.0752C52.341 15.8411 52.3307 15.5863 52.1102 15.3126C51.8889 15.0389 51.5669 14.7841 51.1449 14.55C50.723 14.315 50.2804 14.1093 49.818 13.9337C49.3556 13.7573 48.9827 13.6695 48.702 13.6695C48.3799 13.6678 47.8969 13.9811 47.2545 14.6068ZM32.7484 29.7481C33.1703 28.8882 33.7834 27.8613 34.5877 26.6666C35.392 25.4736 36.3159 24.2118 37.3622 22.882C38.4075 21.5521 39.4822 20.329 40.5896 19.2135C41.6952 18.0988 42.7604 17.1804 43.786 16.4557C44.8115 15.7318 45.6864 15.409 46.4097 15.4874C45.4444 16.5056 44.3483 17.7864 43.1229 19.3314C41.8959 20.8773 40.7196 22.4912 39.5941 24.1731C38.7503 25.0734 37.9055 25.9539 37.0608 26.8138C36.2169 27.6754 35.4522 28.4475 34.7685 29.1318C34.084 29.8169 33.5217 30.3549 33.0799 30.7457C32.6365 31.1373 32.3962 31.3129 32.3566 31.2733C32.1947 31.1184 32.3265 30.6088 32.7484 29.7481Z" fill="#F43F85"/>
<path d="M21.8301 14.724C20.7236 15.546 19.6378 16.5143 18.5734 17.6289C17.5074 18.7445 16.5016 19.9676 15.5579 21.2974C14.6124 22.6281 13.8288 23.9683 13.2054 25.3179C12.5811 26.6667 12.129 27.9983 11.8483 29.3083C11.5667 30.6192 11.5667 31.8234 11.8483 32.9174C11.9688 33.3486 12.2495 33.7394 12.6921 34.0914C13.1339 34.4435 13.6368 34.7464 14.1999 35.0012C14.7622 35.256 15.346 35.4411 15.9488 35.5581C16.5524 35.676 17.0347 35.7148 17.3963 35.676C17.9182 35.6364 18.5623 35.4411 19.3269 35.089C20.0898 34.7361 20.8743 34.2868 21.6794 33.7394C22.4828 33.1911 23.2776 32.5748 24.0621 31.8905C24.8466 31.2062 25.5595 30.4927 26.2036 29.749C26.6049 29.2799 26.7358 28.9855 26.5954 28.8693C26.4542 28.7514 26.1227 28.8891 25.6 29.2808C24.7949 29.829 24.0018 30.3567 23.2174 30.8645C22.4338 31.3741 21.6992 31.8148 21.0155 32.1857C20.3318 32.5576 19.7187 32.8511 19.1762 33.0654C18.6337 33.2806 18.2006 33.3882 17.8794 33.3882C16.8332 33.3099 16.4319 32.6161 16.673 31.3043C16.9141 29.9943 17.5367 28.3994 18.5424 26.5212C19.1047 26.9516 19.7385 27.3536 20.4429 27.7237C21.1456 28.0964 21.8198 28.204 22.4639 28.0465C23.4688 27.8123 24.534 27.1866 25.6603 26.1683C26.7857 25.1509 27.8415 24.0259 28.8274 22.7934C29.8125 21.5608 30.6263 20.3583 31.2704 19.1843C31.9127 18.0111 32.2555 17.1306 32.2951 16.5436C32.3347 16.0745 32.0936 15.5856 31.5717 15.076C31.049 14.5682 30.4049 14.1275 29.6412 13.7556C28.8774 13.3846 28.0628 13.1101 27.1982 12.9345C26.3337 12.758 25.6 12.7684 24.9964 12.9637C23.9915 13.3158 22.9358 13.902 21.8301 14.724ZM21.0164 23.0284C21.7406 22.1478 22.5138 21.2776 23.3388 20.4169C24.162 19.557 24.9972 18.7643 25.842 18.0395C26.6859 17.3156 27.4497 16.7191 28.1342 16.2492C28.6561 15.9367 28.9385 15.8188 28.9781 15.8971C29.0177 15.9763 28.9178 16.2302 28.6767 16.6598C28.1136 17.5988 27.3894 18.5869 26.5059 19.6233C25.6207 20.6605 24.7157 21.6099 23.7917 22.4697C22.866 23.3313 21.992 24.0449 21.1679 24.6121C20.343 25.1793 19.6903 25.4832 19.2081 25.5219C19.6886 24.7404 20.2922 23.9089 21.0164 23.0284Z" fill="#F43F85"/>
<path d="M4.35042 36.2562C4.66192 36.148 5.11165 35.9055 5.69961 35.5288C6.52369 35.0012 7.28834 34.4348 7.99186 33.8263C8.69452 33.2212 9.18793 32.7022 9.46951 32.271C9.75022 31.8406 9.50912 31.7235 8.74618 31.9198C7.98153 32.116 7.71028 31.6159 7.93158 30.423C8.15202 29.23 8.77632 27.635 9.80103 25.639C10.8266 23.6438 12.2138 21.3843 13.9627 18.8607C15.7116 16.337 17.7722 13.8038 20.1454 11.2603C20.346 11.0254 20.4261 10.7714 20.3865 10.4969C20.346 10.224 20.2358 9.93912 20.055 9.64646C19.8742 9.35295 19.6331 9.06977 19.3317 8.7952C19.0303 8.52234 18.7186 8.28736 18.3974 8.09111C20.4072 8.05324 22.3576 8.08164 24.2477 8.17891C26.1369 8.27703 27.8462 8.42422 29.3747 8.61961C29.7759 8.6592 30.1281 8.42422 30.4304 7.91552C30.7326 7.40769 30.9634 6.80087 31.1244 6.09592C31.2846 5.39184 31.3552 4.69722 31.3354 4.01294C31.3147 3.32865 31.164 2.83028 30.8833 2.51611C30.6405 2.28199 29.9172 2.13567 28.7108 2.07628C27.5044 2.01775 26.0061 2.01775 24.2175 2.07628C22.4273 2.13481 20.4873 2.27253 18.3974 2.48771C16.3058 2.70289 14.2658 2.96714 12.275 3.27959C10.2841 3.5929 8.4646 3.96474 6.8156 4.3951C5.16659 4.82547 3.92058 5.29544 3.07585 5.80327C2.83474 5.92033 2.65391 6.23364 2.53335 6.74234C2.4128 7.25103 2.40247 7.75973 2.50321 8.26842C2.6031 8.77712 2.8244 9.18769 3.16626 9.501C3.50726 9.81431 4.02047 9.85304 4.70505 9.61892C5.95106 9.18855 7.51912 8.85545 9.40923 8.62133C11.2985 8.38635 13.3298 8.23055 15.5015 8.15222C14.6568 8.81757 13.6915 9.81517 12.6065 11.145C11.5206 12.4757 10.3943 13.982 9.2284 15.6639C8.06247 17.3466 6.93701 19.118 5.85117 20.9755C4.76532 22.8338 3.77936 24.6052 2.89588 26.2871C2.01067 27.969 1.30715 29.4761 0.784461 30.806C0.260913 32.135 0 33.1136 0 33.7394C0 33.8564 0.130026 34.0622 0.3918 34.3557C0.652713 34.6492 0.984236 34.9427 1.38723 35.2353C1.7885 35.5288 2.23111 35.7836 2.71418 35.9988C2.97979 36.1169 3.23312 36.2028 3.47445 36.2562H4.35042Z" fill="#F43F85"/>
</svg>
