<svg width="400" height="400" viewBox="0 0 400 400" xmlns="http://www.w3.org/2000/svg">
<circle cx="200" cy="150" r="8" fill="#2E438D" /><circle cx="175" cy="125" r="8" fill="#2E438D" /><circle cx="225" cy="125" r="8" fill="#2E438D" /><circle cx="150" cy="100" r="8" fill="#2E438D" /><circle cx="250" cy="100" r="8" fill="#2E438D" /><circle cx="200" cy="125" r="8" fill="#2E438D" /><circle cx="175" cy="100" r="8" fill="#2E438D" /><circle cx="225" cy="100" r="8" fill="#2E438D" /><circle cx="150" cy="75" r="8" fill="#2E438D" /><circle cx="250" cy="75" r="8" fill="#2E438D" /><circle cx="200" cy="100" r="8" fill="#2E438D" /><circle cx="175" cy="75" r="8" fill="#2E438D" /><circle cx="225" cy="75" r="8" fill="#2E438D" /><circle cx="150" cy="50" r="8" fill="#2E438D" /><circle cx="250" cy="50" r="8" fill="#2E438D" /><circle cx="200" cy="250" r="8" fill="#2E438D" /><circle cx="175" cy="275" r="8" fill="#2E438D" /><circle cx="225" cy="275" r="8" fill="#2E438D" /><circle cx="150" cy="300" r="8" fill="#2E438D" /><circle cx="250" cy="300" r="8" fill="#2E438D" /><circle cx="200" cy="275" r="8" fill="#2E438D" /><circle cx="175" cy="300" r="8" fill="#2E438D" /><circle cx="225" cy="300" r="8" fill="#2E438D" /><circle cx="150" cy="325" r="8" fill="#2E438D" /><circle cx="250" cy="325" r="8" fill="#2E438D" /><circle cx="200" cy="300" r="8" fill="#2E438D" /><circle cx="175" cy="325" r="8" fill="#2E438D" /><circle cx="225" cy="325" r="8" fill="#2E438D" /><circle cx="150" cy="350" r="8" fill="#2E438D" /><circle cx="250" cy="350" r="8" fill="#2E438D" /><circle cx="150" cy="200" r="8" fill="#F7B818" /><circle cx="125" cy="175" r="8" fill="#F7B818" /><circle cx="125" cy="225" r="8" fill="#F7B818" /><circle cx="100" cy="150" r="8" fill="#F7B818" /><circle cx="100" cy="250" r="8" fill="#F7B818" /><circle cx="125" cy="200" r="8" fill="#F7B818" /><circle cx="100" cy="175" r="8" fill="#F7B818" /><circle cx="100" cy="225" r="8" fill="#F7B818" /><circle cx="75" cy="150" r="8" fill="#F7B818" /><circle cx="75" cy="250" r="8" fill="#F7B818" /><circle cx="100" cy="200" r="8" fill="#F7B818" /><circle cx="75" cy="175" r="8" fill="#F7B818" /><circle cx="75" cy="225" r="8" fill="#F7B818" /><circle cx="50" cy="150" r="8" fill="#F7B818" /><circle cx="50" cy="250" r="8" fill="#F7B818" /><circle cx="250" cy="200" r="8" fill="#F7B818" /><circle cx="275" cy="175" r="8" fill="#F7B818" /><circle cx="275" cy="225" r="8" fill="#F7B818" /><circle cx="300" cy="150" r="8" fill="#F7B818" /><circle cx="300" cy="250" r="8" fill="#F7B818" /><circle cx="275" cy="200" r="8" fill="#F7B818" /><circle cx="300" cy="175" r="8" fill="#F7B818" /><circle cx="300" cy="225" r="8" fill="#F7B818" /><circle cx="325" cy="150" r="8" fill="#F7B818" /><circle cx="325" cy="250" r="8" fill="#F7B818" /><circle cx="300" cy="200" r="8" fill="#F7B818" /><circle cx="325" cy="175" r="8" fill="#F7B818" /><circle cx="325" cy="225" r="8" fill="#F7B818" /><circle cx="350" cy="150" r="8" fill="#F7B818" /><circle cx="350" cy="250" r="8" fill="#F7B818" />
</svg>